# AST/ASF file generated using VICON BodyLanguage
# -----------------------------------------------
:version 1.10
:name VICON
:units
  mass 1.0
  length 0.45
  angle deg
:documentation
   .ast/.asf automatically generated from VICON data using
   VICON BodyBuilder and BodyLanguage model FoxedUp or BRILLIANT.MOD
:root
   order TX TY TZ RX RY RZ
   axis XYZ
   position 0 0 0  
   orientation 0 0 0 
:bonedata
  begin
     id 1 
     name lhipjoint
     direction 0.603808 -0.713975 0.35448 
     length 2.2025 
     axis 0 0 0  XYZ
  end
  begin
     id 2 
     name lfemur
     direction 0.34202 -0.939693 0  
     length 6.55877  
     axis 0 0 20  XYZ
    dof rx ry rz
    limits (-160.0 20.0)
           (-70.0 70.0)
           (-60.0 70.0)
  end
  begin
     id 3 
     name ltibia
     direction 0.34202 -0.939693 0   
     length 6.80302   
     axis 0 0 20   XYZ
    dof rx
    limits (-10.0 170.0)
  end
  begin
     id 4 
     name lfoot
     direction 0.091848 -0.25235 0.963267   
     length 2.03446   
     axis -90 7.62852e-016 20   XYZ
    dof rx rz
    limits (-45.0 90.0)
           (-70.0 20.0)
  end
  begin
     id 5 
     name ltoes
     direction 1.53608e-011 -4.21925e-011 1   
     length 1.02033   
     axis -90 7.62852e-016 20   XYZ
    dof rx
    limits (-90.0 20.0)
  end
  begin
     id 6 
     name rhipjoint
     direction -0.587285 -0.724947 0.359928   
     length 2.16916  
     axis 0 0 0  XYZ 
  end
  begin
     id 7 
     name rfemur
     direction -0.34202 -0.939693 0   
     length 6.43173   
     axis 0 0 -20   XYZ
    dof rx ry rz
    limits (-160.0 20.0)
           (-70.0 70.0)
           (-70.0 60.0)
  end
  begin
     id 8 
     name rtibia
     direction -0.34202 -0.939693 0   
     length 6.70662   
     axis 0 0 -20   XYZ
    dof rx
    limits (-10.0 170.0)
 end
 begin
     id 9 
     name rfoot
     direction -0.11854 -0.325686 0.938018   
     length 2.0773  
     axis -90 -7.62852e-016 -20   XYZ
    dof rx rz
    limits (-45.0 90.0)
           (-20.0 70.0)
  end
  begin
     id 10 
     name rtoes
     direction -1.53547e-011 -4.21838e-011 1   
     length 1.03267   
     axis -90 -7.62852e-016 -20   XYZ
    dof rx
    limits (-90.0 20.0)
  end
  begin
     id 11 
     name lowerback
     direction -0.0286554 0.999539 0.0100613   
     length 2.08751   
     axis 0 0 0   XYZ
    dof rx ry rz
    limits (-20.0 45.0)
           (-30.0 30.0)
           (-30.0 30.0)
  end
  begin
     id 12 
     name upperback
     direction 0.0227093 0.999705 -0.00860929   
     length 2.08517   
     axis 0 0 0   XYZ
    dof rx ry rz
    limits (-20.0 45.0)
           (-30.0 30.0)
           (-30.0 30.0)
  end
  begin
     id 13 
     name thorax
     direction 0.0351627 0.999285 -0.013892   
     length 2.08412   
     axis 0 0 0   XYZ
    dof rx ry rz
    limits (-20.0 45.0)
           (-30.0 30.0)
           (-30.0 30.0)
  end
  begin
     id 14 
     name lowerneck
     direction -0.0696283 0.997344 0.0213922   
     length 1.44164   
     axis 0 0 0   XYZ
    dof rx ry rz
    limits (-20.0 45.0)
           (-30.0 30.0)
           (-30.0 30.0)
  end
  begin
     id 15 
     name upperneck
     direction 0.0531 0.990412 -0.127531   
     length 1.45022   
     axis 0 0 0   XYZ
    dof rx ry rz
    limits (-20.0 45.0)
           (-30.0 30.0)
           (-30.0 30.0)
  end
  begin
     id 16
     name head
     direction 0.0188154 0.998548 -0.0504727  
     length 1.45845  
     axis 0 0 0   XYZ
    dof rx ry rz
    limits (-20.0 45.0)
           (-30.0 30.0)
           (-30.0 30.0)
  end
  begin
     id 17 
     name lclavicle
     direction 0.961559 0.260051 0.088188  
     length 2.86057  
     axis 0 0 0   XYZ
    dof ry rz
    limits (-20.0 10.0)
           (0.0 20.0)
  end
  begin
     id 18 
     name lhumerus
     direction 1 -4.48959e-011 2.88185e-027   
     length 4.36901   
     axis 180 -30 -90   XYZ
    dof rx ry rz
    limits (-60.0 90.0)
           (-90.0 90.0)
           (-90.0 90.0)
  end
  begin
     id 19
     name lradius
     direction 1 -4.48965e-011 -3.92618e-028   
     length 3.21737   
     axis 180 -30 -90   XYZ
    dof rx
    limits (-10.0 170.0)
  end
  begin
     id 20
     name lwrist
     direction 1 -4.49037e-011 2.57246e-027   
     length 1.60869   
     axis -1.61769e-015 90 90   XYZ
    dof ry
    limits (-180.0 0.0)
 end
  begin
     id 21 
     name lhand
     direction 1 -4.48807e-011 5.12958e-027   
     length 0.564313   
     axis -3.27988e-015 90 90   XYZ
    dof rx rz
    limits (-90.0 90.0)
           (-45.0 45.0)
  end
  begin
     id 22 
     name lfingers
     direction 1 -4.48879e-011 1.02687e-026   
     length 0.454963   
     axis -6.5598e-015 90 90   XYZ
    dof rx
    limits (0.0 90.0)
  end
  begin
     id 23
     name lthumb
     direction 0.707107 -6.3475e-011 0.707107   
     length 0.653239   
     axis -90 45 2.19363e-014   XYZ
    dof rx rz
    limits (-45.0 45.0)
           (-45.0 45.0)
  end
  begin
     id 24 
     name rclavicle
     direction -0.954677 0.253915 0.155304   
     length 3.11497  
     axis 0 0 0   XYZ 
    dof ry rz
    limits (-10.0 20.0)
           (-20.0 0.0)
  end
  begin
     id 25 
     name rhumerus
     direction -1 -4.48958e-011 -8.20169e-028  
     length 4.34118   
     axis 180 30 90   XYZ
    dof rx ry rz
    limits (-90.0 60.0)
           (-90.0 90.0)
           (-90.0 90.0)
  end
  begin
     id 26 
     name rradius
     direction -1 -4.48978e-011 1.5676e-027   
     length 3.09531   
     axis 180 30 90   XYZ
    dof rx
    limits (-10.0 170.0)
  end
  begin
     id 27 
     name rwrist
     direction -1 -4.49001e-011 2.57123e-027   
     length 1.54765   
     axis -1.61769e-015 -90 -90   XYZ
    dof ry
    limits (-180.0 0.0)
  end
  begin
     id 28
     name rhand
     direction -1 -4.48847e-011 5.13225e-027   
     length 0.597446   
     axis -3.27988e-015 -90 -90   XYZ
    dof rx rz
    limits (-90.0 90.0)
           (-45.0 45.0)
  end
  begin
     id 29
     name rfingers
     direction -1 -4.49094e-011 1.02974e-026   
     length 0.481677   
     axis -6.5598e-015 -90 -90   XYZ
    dof rx
    limits (0.0 90.0)
  end
  begin
     id 30
     name rthumb
     direction -0.707107 -6.34859e-011 0.707107   
     length 0.691594   
     axis -90 -45 -2.19363e-014   XYZ
    dof rx rz
    limits (-45.0 45.0)
           (-45.0 45.0)
  end
:hierarchy
  begin
    root lhipjoint rhipjoint lowerback
    lhipjoint lfemur
    lfemur ltibia
    ltibia lfoot
    lfoot ltoes
    rhipjoint rfemur
    rfemur rtibia
    rtibia rfoot
    rfoot rtoes
    lowerback upperback
    upperback thorax
    thorax lowerneck lclavicle rclavicle
    lowerneck upperneck
    upperneck head
    lclavicle lhumerus
    lhumerus lradius
    lradius lwrist
    lwrist lhand lthumb
    lhand lfingers
    rclavicle rhumerus
    rhumerus rradius
    rradius rwrist
    rwrist rhand rthumb
    rhand rfingers
  end

#!OML:ASF I:\Acrobat_Osman\acrobat\cartwheel_test 2\Patient 1\Session 1\acrobat.ASF
:FULLY-SPECIFIED
:DEGREES
105
root 8.18762 14.5671 6.58841 25.1872 -3.21599 0.23394
lowerback 9.15746 0.0380763 -2.24669
upperback 6.82675 -0.120852 2.17199
thorax 1.9718 -0.190752 3.52291
lowerneck -12.2353 -3.60041 -6.94359
upperneck 4.60434 -4.09413 4.71755
head 3.58802 -1.9314 2.28551
rclavicle -2.78299e-015 9.93923e-015
rhumerus -83.2894 -7.50524 -42.3346
rradius 70.9409
rwrist -33.2266
rhand -32.5074 35.6508
rfingers 7.12502
rthumb -5.7386 5.74853
lclavicle -2.78299e-015 9.93923e-015
lhumerus -86.1171 -1.32955 51.9908
lradius 64.53
lwrist 50.1533
lhand -9.62123 39.9905
lfingers 7.12502
lthumb 16.3484 69.3215
rfemur -61.8342 1.2839 21.7572
rtibia 74.0282
rfoot -19.1811 -5.88089
rtoes -18.7874
lfemur -62.4167 0.969922 -22.1134
ltibia 76.5449
lfoot -17.7268 7.30124
ltoes -30.5329
106
root 8.21498 14.3607 6.62573 26.1321 -3.25567 0.0709069
lowerback 9.33051 -0.0206746 -2.10021
upperback 6.21455 -0.185791 2.29205
thorax 1.24048 -0.200352 3.57053
lowerneck -11.9267 -3.43251 -7.39506
upperneck 3.3761 -3.81614 5.00807
head 3.16335 -1.78644 2.47684
rclavicle -5.1684e-015 2.94201e-014
rhumerus -80.8946 -9.05666 -48.6115
rradius 73.5447
rwrist -32.4462
rhand -33.4146 38.4862
rfingers 7.12502
rthumb -6.61446 8.60948
lclavicle -5.1684e-015 2.94201e-014
lhumerus -85.054 1.8492 56.9354
lradius 67.1614
lwrist 49.3611
lhand -7.3476 37.9
lfingers 7.12502
lthumb 18.5365 67.0368
rfemur -63.3002 1.51774 22.2219
rtibia 76.1371
rfoot -22.7871 -6.65442
rtoes -18.0802
lfemur -64.3108 0.0543258 -21.9248
ltibia 79.1552
lfoot -19.8801 8.90077
ltoes -30.8469
107
root 8.24932 14.0552 6.67662 27.1349 -3.45611 0.12701
lowerback 8.81433 -0.0378265 -2.13087
upperback 5.66815 -0.199895 2.3905
thorax 0.954976 -0.197379 3.68845
lowerneck -11.1612 -3.28057 -7.29197
upperneck 1.12219 -3.61242 4.4168
head 2.58941 -1.71241 2.54856
rclavicle 9.54166e-015 -1.90833e-014
rhumerus -77.1344 -9.95242 -55.9675
rradius 78.4959
rwrist -32.2136
rhand -33.3639 36.7441
rfingers 7.12502
rthumb -6.56548 6.86588
lclavicle 9.54166e-015 -1.90833e-014
lhumerus -82.2108 4.40584 63.1722
lradius 71.5776
lwrist 48.8157
lhand -6.5084 37.1613
lfingers 7.12502
lthumb 19.3436 66.2192
rfemur -65.0126 1.80482 22.4243
rtibia 78.6013
rfoot -26.8745 -6.75295
rtoes -16.8839
lfemur -66.5075 -0.82772 -22.1286
ltibia 82.0383
lfoot -22.369 10.7809
ltoes -32.4153
108
root 8.28107 13.7402 6.73372 27.9709 -3.76593 0.384071
lowerback 7.89655 0.0766419 -2.22821
upperback 5.17347 -0.0402417 2.40062
thorax 0.932194 -0.112438 3.73741
lowerneck -9.74822 -3.28048 -6.51779
upperneck -1.59879 -3.74138 3.39841
head 1.37629 -1.79069 2.05875
rclavicle -3.57812e-015 -2.10712e-014
rhumerus -69.637 -10.4045 -63.5738
rradius 81.7057
rwrist -31.0208
rhand -33.3335 40.1464
rfingers 7.12502
rthumb -6.53614 10.2673
lclavicle -3.57812e-015 -2.10712e-014
lhumerus -75.6843 5.62124 70.1664
lradius 75.392
lwrist 48.419
lhand -7.7588 36.0549
lfingers 7.12502
lthumb 18.1409 65.2289
rfemur -66.6395 2.21951 22.2201
rtibia 81.1508
rfoot -30.5659 -8.21901
rtoes -18.569
lfemur -68.485 -1.6415 -22.5649
ltibia 84.8453
lfoot -24.7867 11.9405
ltoes -33.0489
109
root 8.30542 13.4488 6.78536 28.3899 -4.06903 0.596645
lowerback 6.99813 0.20034 -2.30238
upperback 4.66258 0.134732 2.34783
thorax 0.883279 -0.0173848 3.70998
lowerneck -8.1986 -3.30424 -5.49907
upperneck -4.18022 -3.95693 2.24942
head 0.231931 -1.90773 1.51984
rclavicle 5.1684e-015 6.75868e-015
rhumerus -61.1274 -8.07323 -71.8721
rradius 87.4577
rwrist -29.0533
rhand -32.7722 41.5234
rfingers 7.12502
rthumb -5.99429 11.6282
lclavicle 5.1684e-015 6.75868e-015
lhumerus -64.9636 5.1994 77.1858
lradius 77.199
lwrist 48.3888
lhand -7.19593 34.1814
lfingers 7.12502
lthumb 18.6824 63.3043
rfemur -68.1982 2.79933 21.8838
rtibia 83.8704
rfoot -32.9848 -8.62406
rtoes -16.2618
lfemur -69.9562 -2.28966 -22.9004
ltibia 87.5618
lfoot -26.6892 13.8856
ltoes -34.1229
110
root 8.31782 13.1895 6.83136 28.3346 -4.30257 0.554613
lowerback 6.21614 0.343987 -2.17547
upperback 3.83592 0.348222 2.18177
thorax 0.443825 0.112989 3.45099
lowerneck -7.8321 -3.22446 -5.86548
upperneck -3.93862 -3.83402 2.78334
head 0.264881 -1.84009 1.7643
rclavicle -6.75868e-015 -8.74653e-015
rhumerus -48.0213 -4.0026 -78.6441
rradius 89.1473
rwrist -25.625
rhand -30.3642 42.5324
rfingers 7.12502
rthumb -3.66917 12.5843
lclavicle -6.75868e-015 -8.74653e-015
lhumerus -53.7778 0.71949 83.0913
lradius 83.1731
lwrist 51.2086
lhand -11.4733 39.0648
lfingers 7.12502
lthumb 14.5645 68.5335
rfemur -69.435 3.53992 21.8843
rtibia 86.5005
rfoot -34.0759 -8.57679
rtoes -11.4088
lfemur -70.7559 -2.58018 -23.0055
ltibia 89.9427
lfoot -28.4253 15.2427
ltoes -35.0682
111
root 8.33004 12.9922 6.86293 26.7825 -4.08348 0.589173
lowerback 7.1933 0.450941 -1.75744
upperback 2.8178 0.509437 1.96145
thorax -1.15661 0.235536 2.96948
lowerneck -5.72246 -2.95831 -5.70737
upperneck -4.06593 -3.60145 3.29079
head -0.130514 -1.73291 1.93777
rclavicle 1.90833e-014 -3.18055e-015
rhumerus -34.7665 1.13346 -81.5661
rradius 94.3289
rwrist -13.0313
rhand -39.1895 65.1438
rfingers 7.12502
rthumb -12.1864 35.5188
lclavicle 1.90833e-014 -3.18055e-015
lhumerus -38.5118 -3.70286 84.5479
lradius 88.0732
lwrist 54.4903
lhand -29.14 56.6119
lfingers 7.12502
lthumb -2.48696 86.5772
rfemur -68.5639 3.67717 22.2308
rtibia 88.443
rfoot -34.9816 -9.31468
rtoes -9.11752
lfemur -69.593 -2.91201 -23.3091
ltibia 91.517
lfoot -29.5864 17.4485
ltoes -36.3444
112
root 8.33706 12.8563 6.89666 25.0051 -3.52065 0.847959
lowerback 7.70519 0.473034 -1.48098
upperback 2.34037 0.555509 1.80733
thorax -1.93242 0.274193 2.64699
lowerneck -6.77655 -3.14861 -5.27352
upperneck -2.11335 -3.8401 3.20338
head 0.662444 -1.86253 1.79907
rclavicle 9.14409e-015 1.19271e-014
rhumerus -18.1104 5.31413 -81.7641
rradius 93.5955
rwrist 3.91569
rhand -45.0799 64.2751
rfingers 7.12502
rthumb -17.8605 35.0753
lclavicle 9.14409e-015 1.19271e-014
lhumerus -22.7143 -8.06118 85.3452
lradius 88.8481
lwrist 58.882
lhand -44.6651 73.1377
lfingers 7.12502
lthumb -17.4614 257.627
rfemur -66.7629 3.35822 22.4777
rtibia 89.3354
rfoot -36.3059 -10.6309
rtoes -9.1281
lfemur -67.8418 -3.2038 -23.9698
ltibia 92.1071
lfoot -30.6341 18.3765
ltoes -36.8431
113
root 8.3224 12.8577 6.96054 21.7645 -1.63112 1.55843
lowerback 9.63228 -0.206725 -1.66439
upperback 1.92348 -0.369684 1.85902
thorax -3.37725 -0.161412 2.91448
lowerneck -5.59011 -3.00312 -5.19005
upperneck -1.85146 -3.71332 3.46946
head 0.542424 -1.80599 1.88772
rclavicle -5.56597e-015 6.75868e-015
rhumerus -2.14506 12.7106 -79.4225
rradius 92.6635
rwrist 2.68927
rhand -42.9606 56.5481
rfingers 7.12502
rthumb -15.8204 27.1745
lclavicle -5.56597e-015 6.75868e-015
lhumerus -8.31539 -10.8776 83.4218
lradius 90.8699
lwrist 67.4385
lhand -45.4827 68.126
lfingers 7.12502
lthumb -18.2481 262.71
rfemur -61.9115 1.8843 22.7021
rtibia 89.0159
rfoot -38.5016 -11.8552
rtoes -9.09329
lfemur -63.3789 -4.11993 -24.6809
ltibia 91.5747
lfoot -31.7779 18.8083
ltoes -34.8839
114
root 8.28867 13.0297 7.09387 17.0218 3.32669 2.47284
lowerback 13.4927 -1.93431 -1.07314
upperback 2.15151 -2.57421 2.15677
thorax -5.14044 -1.22641 3.32834
lowerneck -5.37905 -3.04471 -5.415
upperneck -2.14303 -3.76257 3.85791
head 0.431977 -1.82622 2.05785
rclavicle 3.1408e-014 -1.19271e-014
rhumerus 12.5766 15.7799 -75.5019
rradius 90.6323
rwrist 6.0282
rhand -41.5391 51.914
rfingers 7.12502
rthumb -14.4511 22.4371
lclavicle 3.1408e-014 -1.19271e-014
lhumerus 6.2356 -11.9111 79.0059
lradius 92.7741
lwrist 77.2027
lhand -43.6604 60.6371
lfingers 7.12502
lthumb -16.4942 89.956
rfemur -53.4717 -2.21729 23.3447
rtibia 87.0637
rfoot -40.9187 -12.6011
rtoes -8.59474
lfemur -55.8291 -7.3194 -24.7273
ltibia 89.4963
lfoot -32.1381 18.9072
ltoes -34.795
115
root 8.25722 13.0444 7.12908 21.4839 -0.86432 1.11202
lowerback 7.99477 -0.485359 -2.33611
upperback 0.486268 -0.760963 2.27448
thorax -3.91982 -0.317665 3.76576
lowerneck -5.80709 -3.26861 -6.10624
upperneck -2.7183 -3.98733 5.10328
head 0.384717 -1.91894 2.58814
rclavicle -9.34288e-015 -7.95139e-016
rhumerus 27.75 17.5166 -69.3529
rradius 92.3779
rwrist -1.77502
rhand -36.6095 49.1719
rfingers 7.12502
rthumb -9.69789 19.4152
lclavicle -9.34288e-015 -7.95139e-016
lhumerus 20.5803 -12.2367 72.3132
lradius 96.1761
lwrist 78.4094
lhand -38.0436 57.162
lfingers 7.12502
lthumb -11.0813 86.8495
rfemur -58.9693 2.66801 23.3107
rtibia 85.7842
rfoot -37.8378 -13.2191
rtoes -9.89552
lfemur -61.0655 -2.79477 -24.4864
ltibia 88.753
lfoot -31.146 17.5664
ltoes -32.3801
116
root 8.2504 13.3278 7.27559 22.4646 -0.416347 1.21549
lowerback 5.80889 -0.70566 -2.50962
upperback 0.15455 -1.03267 2.33
thorax -3.01175 -0.462826 3.90778
lowerneck -6.15842 -3.15712 -5.80208
upperneck -3.26801 -3.82629 4.80288
head 0.245877 -1.83697 2.4352
rclavicle 1.27222e-014 -1.55052e-014
rhumerus 41.659 16.3542 -61.4797
rradius 92.3611
rwrist -15.1908
rhand -26.0513 25.1437
rfingers 7.12502
rthumb 0.496222 -4.8355
lclavicle 1.27222e-014 -1.55052e-014
lhumerus 34.3169 -8.80083 65.9834
lradius 98.3067
lwrist 76.6758
lhand -32.3651 53.3101
lfingers 7.12502
lthumb -5.60129 83.2161
rfemur -57.787 2.23207 23.1181
rtibia 82.2324
rfoot -35.6311 -12.9199
rtoes -10.7213
lfemur -59.9908 -2.75025 -24.4531
ltibia 85.4254
lfoot -29.2895 15.8306
ltoes -30.3354
117
root 8.23536 13.8041 7.50385 21.7343 0.163724 1.42318
lowerback 6.32416 -0.989417 -2.63206
upperback -0.472763 -1.42968 2.2358
thorax -3.91736 -0.631427 3.93736
lowerneck -5.85729 -3.19436 -6.1127
upperneck -2.02344 -3.90004 5.22594
head 0.613355 -1.87482 2.62865
rclavicle 4.17448e-015 -1.59028e-015
rhumerus 51.2154 13.1079 -55.18
rradius 90.3621
rwrist -26.9744
rhand -33.8201 40.6085
rfingers 7.12502
rthumb -7.00593 10.7444
lclavicle 4.17448e-015 -1.59028e-015
lhumerus 43.9424 -3.97932 60.179
lradius 100.255
lwrist 71.9245
lhand -23.367 46.1923
lfingers 7.12502
lthumb 3.08865 76.1497
rfemur -52.9745 1.15507 22.8952
rtibia 76.7554
rfoot -32.9775 -11.5703
rtoes -11.103
lfemur -55.3851 -2.2995 -24.4957
ltibia 80.2209
lfoot -26.5862 14.959
ltoes -32.3029
118
root 8.21425 14.4005 7.80889 20.1908 1.16226 1.56716
lowerback 6.58645 -1.45495 -3.11287
upperback -0.354915 -2.08191 2.51787
thorax -3.85906 -0.946219 4.57086
lowerneck -7.21079 -3.30966 -6.70887
upperneck 1.55885 -4.03135 5.56663
head 2.05472 -1.92794 2.83478
rclavicle 5.96354e-016 -1.43125e-014
rhumerus 57.0557 8.48752 -51.7811
rradius 91.8104
rwrist -31.429
rhand -35.1231 41.7229
rfingers 7.12502
rthumb -8.26359 11.9045
lclavicle 5.96354e-016 -1.43125e-014
lhumerus 51.5263 2.61164 56.4102
lradius 99.6425
lwrist 70.3228
lhand -19.4058 43.4965
lfingers 7.12502
lthumb 6.91348 73.3637
rfemur -46.1484 -0.559787 22.6493
rtibia 69.4798
rfoot -29.5377 -10.3394
rtoes -14.7853
lfemur -48.8453 -1.68466 -24.1683
ltibia 73.2084
lfoot -23.45 11.2471
ltoes -30.8234
